<mxfile host="app.diagrams.net" agent="Mozilla/5.0 (Macintosh; Intel Mac OS X 10_15_7) AppleWebKit/537.36 (KHTML, like Gecko) Chrome/128.0.0.0 Safari/537.36" version="24.7.7">
  <diagram name="第 1 页" id="VzPXvRIWdjI6DaBHLcd4">
    <mxGraphModel dx="954" dy="605" grid="0" gridSize="10" guides="1" tooltips="1" connect="1" arrows="1" fold="1" page="1" pageScale="1" pageWidth="827" pageHeight="1169" math="0" shadow="0">
      <root>
        <mxCell id="0" />
        <mxCell id="1" parent="0" />
        <mxCell id="BHfDt1Ap4tenIuP36lFn-2" value="NFS Server" style="verticalLabelPosition=bottom;dashed=0;shadow=0;html=1;align=center;verticalAlign=top;shape=mxgraph.cabinets.surge_protection_4p;fillColor=#f5f5f5;strokeColor=#666666;fontColor=#333333;" vertex="1" parent="1">
          <mxGeometry x="200" y="240" width="120" height="120" as="geometry" />
        </mxCell>
        <mxCell id="BHfDt1Ap4tenIuP36lFn-3" value="NFS卷" style="verticalAlign=top;align=left;spacingTop=8;spacingLeft=2;spacingRight=12;shape=cube;size=10;direction=south;fontStyle=4;html=1;whiteSpace=wrap;fillColor=#fff2cc;strokeColor=#d6b656;" vertex="1" parent="1">
          <mxGeometry x="390" y="170" width="180" height="120" as="geometry" />
        </mxCell>
        <mxCell id="BHfDt1Ap4tenIuP36lFn-4" value="NFS卷" style="verticalAlign=top;align=left;spacingTop=8;spacingLeft=2;spacingRight=12;shape=cube;size=10;direction=south;fontStyle=4;html=1;whiteSpace=wrap;fillColor=#fff2cc;strokeColor=#d6b656;" vertex="1" parent="1">
          <mxGeometry x="390" y="330" width="180" height="120" as="geometry" />
        </mxCell>
        <mxCell id="BHfDt1Ap4tenIuP36lFn-5" value="&lt;font style=&quot;font-size: 17px;&quot;&gt;docker容器&lt;/font&gt;" style="rounded=1;whiteSpace=wrap;html=1;fillColor=#d5e8d4;strokeColor=#82b366;" vertex="1" parent="1">
          <mxGeometry x="620" y="270" width="120" height="60" as="geometry" />
        </mxCell>
        <mxCell id="BHfDt1Ap4tenIuP36lFn-6" style="edgeStyle=orthogonalEdgeStyle;rounded=0;orthogonalLoop=1;jettySize=auto;html=1;exitX=0.5;exitY=0;exitDx=0;exitDy=0;entryX=0;entryY=0;entryDx=55;entryDy=0;entryPerimeter=0;curved=1;" edge="1" parent="1" source="BHfDt1Ap4tenIuP36lFn-5" target="BHfDt1Ap4tenIuP36lFn-3">
          <mxGeometry relative="1" as="geometry" />
        </mxCell>
        <mxCell id="BHfDt1Ap4tenIuP36lFn-10" value="挂载" style="edgeLabel;html=1;align=center;verticalAlign=middle;resizable=0;points=[];" vertex="1" connectable="0" parent="BHfDt1Ap4tenIuP36lFn-6">
          <mxGeometry x="0.1226" y="7" relative="1" as="geometry">
            <mxPoint as="offset" />
          </mxGeometry>
        </mxCell>
        <mxCell id="BHfDt1Ap4tenIuP36lFn-7" style="edgeStyle=orthogonalEdgeStyle;rounded=0;orthogonalLoop=1;jettySize=auto;html=1;exitX=0.5;exitY=1;exitDx=0;exitDy=0;entryX=0;entryY=0;entryDx=55;entryDy=0;entryPerimeter=0;curved=1;" edge="1" parent="1" source="BHfDt1Ap4tenIuP36lFn-5" target="BHfDt1Ap4tenIuP36lFn-4">
          <mxGeometry relative="1" as="geometry" />
        </mxCell>
        <mxCell id="BHfDt1Ap4tenIuP36lFn-11" value="挂载" style="edgeLabel;html=1;align=center;verticalAlign=middle;resizable=0;points=[];" vertex="1" connectable="0" parent="BHfDt1Ap4tenIuP36lFn-7">
          <mxGeometry x="0.0303" y="-13" relative="1" as="geometry">
            <mxPoint as="offset" />
          </mxGeometry>
        </mxCell>
        <mxCell id="BHfDt1Ap4tenIuP36lFn-8" style="edgeStyle=orthogonalEdgeStyle;rounded=0;orthogonalLoop=1;jettySize=auto;html=1;exitX=0;exitY=0;exitDx=65;exitDy=180;exitPerimeter=0;entryX=0.983;entryY=0.517;entryDx=0;entryDy=0;entryPerimeter=0;curved=1;" edge="1" parent="1" source="BHfDt1Ap4tenIuP36lFn-3" target="BHfDt1Ap4tenIuP36lFn-2">
          <mxGeometry relative="1" as="geometry" />
        </mxCell>
        <mxCell id="BHfDt1Ap4tenIuP36lFn-12" value="rpc" style="edgeLabel;html=1;align=center;verticalAlign=middle;resizable=0;points=[];" vertex="1" connectable="0" parent="BHfDt1Ap4tenIuP36lFn-8">
          <mxGeometry x="-0.0219" y="1" relative="1" as="geometry">
            <mxPoint as="offset" />
          </mxGeometry>
        </mxCell>
        <mxCell id="BHfDt1Ap4tenIuP36lFn-9" style="edgeStyle=orthogonalEdgeStyle;rounded=0;orthogonalLoop=1;jettySize=auto;html=1;exitX=0;exitY=0;exitDx=65;exitDy=180;exitPerimeter=0;entryX=1;entryY=0.65;entryDx=0;entryDy=0;entryPerimeter=0;curved=1;" edge="1" parent="1" source="BHfDt1Ap4tenIuP36lFn-4" target="BHfDt1Ap4tenIuP36lFn-2">
          <mxGeometry relative="1" as="geometry" />
        </mxCell>
        <mxCell id="BHfDt1Ap4tenIuP36lFn-13" value="rpc" style="edgeLabel;html=1;align=center;verticalAlign=middle;resizable=0;points=[];" vertex="1" connectable="0" parent="BHfDt1Ap4tenIuP36lFn-9">
          <mxGeometry x="0.0068" y="1" relative="1" as="geometry">
            <mxPoint as="offset" />
          </mxGeometry>
        </mxCell>
      </root>
    </mxGraphModel>
  </diagram>
</mxfile>
